<svg width="142" height="44" viewBox="0 0 142 44" fill="none" xmlns="http://www.w3.org/2000/svg">
<path d="M1.35477 1.93872C10.038 1.20093 28.4043 -1.29031 19.4034 23.2648C22.2166 15.5902 22.3675 2.74099 1.35477 1.93872Z" fill="#18A116"/>
<path d="M5.47393 43.9982C1.07489 33.601 0.308393 17.6718 0.475023 11.0068C-1.12462 23.2703 1.69698 38.1109 3.30773 43.9982H5.47393Z" fill="#1A791A"/>
<path d="M11.8191 23.509C17.0528 23.0272 19.0802 25.9404 19.4396 27.4573C8.52679 31.1561 3.58398 24.1997 2.47668 20.2591C3.41008 21.5432 6.58532 23.9908 11.8191 23.509Z" fill="#18A116"/>
<path d="M11.377 25.4651C16.6108 24.9833 18.0912 26.1263 19.4396 27.4573C8.52678 31.1561 3.58398 24.1997 2.47668 20.2591C3.41008 21.5432 6.1433 25.9469 11.377 25.4651Z" fill="url(#paint0_radial_972_217)"/>
<path d="M132.645 33.9804V15.4602H125.414V14.0049H141.781V15.4602H134.551V33.9804H132.645Z" fill="#1A791A"/>
<path d="M110.885 33.011L111.055 31.3626H111.224C111.956 31.9853 112.782 32.4707 113.702 32.8187C114.623 33.1667 115.533 33.3407 116.435 33.3407C117.712 33.3407 118.745 33.0018 119.534 32.3242C120.322 31.6282 120.717 30.7033 120.717 29.5494C120.717 28.9084 120.566 28.3132 120.266 27.7637C119.984 27.2143 119.505 26.6557 118.829 26.0879C118.172 25.5201 117.261 24.9066 116.097 24.2473C115.289 23.7894 114.519 23.3132 113.787 22.8187C113.055 22.3059 112.454 21.7198 111.984 21.0604C111.515 20.3828 111.28 19.5769 111.28 18.6429C111.28 17.2509 111.796 16.1337 112.829 15.2912C113.862 14.4304 115.224 14 116.914 14C117.665 14 118.472 14.0824 119.336 14.2473C120.2 14.3938 120.867 14.5861 121.336 14.8242L121.196 16.3626H121.027C119.956 15.2271 118.585 14.6593 116.914 14.6593C115.712 14.6593 114.745 14.9615 114.012 15.5659C113.28 16.152 112.914 16.9487 112.914 17.956C112.914 18.707 113.111 19.3571 113.505 19.9066C113.918 20.4377 114.444 20.9231 115.083 21.3626C115.721 21.7839 116.407 22.196 117.139 22.5989C117.984 23.0751 118.801 23.5788 119.59 24.1099C120.397 24.641 121.055 25.2821 121.562 26.033C122.088 26.7656 122.35 27.6905 122.35 28.8077C122.35 29.8333 122.106 30.7399 121.618 31.5275C121.13 32.2967 120.435 32.9011 119.534 33.3407C118.651 33.7802 117.618 34 116.435 34C115.684 34 114.801 33.9084 113.787 33.7253C112.773 33.5421 111.806 33.304 110.885 33.011Z" fill="#1A791A"/>
<path d="M104.295 33.9804V14.0049H106.201V33.9804H104.295Z" fill="#1A791A"/>
<path d="M81.4697 33.9804V14.0049H87.6353C89.8026 14.0049 91.6897 14.4234 93.2965 15.2605C94.9033 16.0976 96.1551 17.2675 97.0519 18.7705C97.9487 20.2544 98.3971 21.9951 98.3971 23.9926C98.3971 25.9902 97.9487 27.7404 97.0519 29.2433C96.1551 30.7272 94.9033 31.8877 93.2965 32.7248C91.6897 33.5619 89.8026 33.9804 87.6353 33.9804H81.4697ZM87.6353 14.6898H83.3755V33.2955H87.6353C90.3445 33.2955 92.4557 32.4775 93.9691 30.8414C95.5011 29.2053 96.2672 26.9224 96.2672 23.9926C96.2672 21.0629 95.5011 18.78 93.9691 17.1439C92.4557 15.5078 90.3445 14.6898 87.6353 14.6898Z" fill="#1A791A"/>
<path d="M63.4888 14.0049H67.2442C69.2246 14.0049 70.7567 14.4329 71.8404 15.289C72.9427 16.1261 73.4939 17.3056 73.4939 18.8275C73.4939 20.007 73.1482 20.9868 72.4569 21.7668C71.7843 22.5468 70.8034 23.07 69.5142 23.3363V23.5075C70.7474 23.7548 71.7563 24.3446 72.541 25.2768C73.3257 26.209 73.9142 27.3599 74.3066 28.7297C74.6616 29.9853 75.0072 30.965 75.3435 31.6689C75.6985 32.3538 76.0815 32.8484 76.4926 33.1528C76.9223 33.4572 77.4268 33.676 78.006 33.8092V33.9804H76.8569C76.0348 33.9804 75.3529 33.8282 74.8111 33.5238C74.2879 33.2194 73.8395 32.7058 73.4658 31.9828C73.0922 31.2599 72.7372 30.2611 72.4009 28.9865C71.859 27.027 71.1397 25.6382 70.2429 24.8202C69.3461 24.0022 68.2531 23.5931 66.9639 23.5931H66.7958V23.0795H66.9639C69.972 23.0795 71.476 21.6717 71.476 18.8561C71.476 16.0785 70.0654 14.6898 67.2442 14.6898H65.3945V33.9804H63.4888V14.0049Z" fill="#1A791A"/>
<path d="M48.9832 14.0049V33.9804H57.615V32.5821H50.8889V24.2209H57.2226V22.9083H50.8889V15.4032H57.5309V14.0049H48.9832Z" fill="#1A791A"/>
<path d="M33 33.9823V14.0068H36.5032C38.7639 14.0068 40.5202 14.5015 41.772 15.4907C43.0238 16.461 43.6497 17.8212 43.6497 19.5714C43.6497 21.3217 43.0238 22.6914 41.772 23.6807C40.5202 24.6509 38.7639 25.1361 36.5032 25.1361H34.9057V33.9823H33ZM36.5032 14.6917H34.9057V24.4512H36.5032C39.9223 24.4512 41.6318 22.8246 41.6318 19.5714C41.6318 16.3183 39.9223 14.6917 36.5032 14.6917Z" fill="#1A791A"/>
<defs>
<radialGradient id="paint0_radial_972_217" cx="0" cy="0" r="1" gradientUnits="userSpaceOnUse" gradientTransform="translate(10.7928 23.9467) rotate(58.8981) scale(7.18424 5.59038)">
<stop stop-color="#1A791A"/>
<stop offset="1" stop-color="#1A791A" stop-opacity="0"/>
</radialGradient>
</defs>
</svg>
